<?xml version="1.0" encoding="UTF-8"?>
<svg width="100px" height="100px" viewBox="0 0 100 100" version="1.1" xmlns="http://www.w3.org/2000/svg" xmlns:xlink="http://www.w3.org/1999/xlink">
    <!-- Generator: Sketch 50.2 (55047) - http://www.bohemiancoding.com/sketch -->
    <title>logo / AV / b</title>
    <desc>Created with Sketch.</desc>
    <defs>
        <circle id="path-1" cx="50" cy="50" r="50"></circle>
        <path d="M33.9993701,28.0225356 C33.8523988,29.0023445 33.5094657,29.933163 33.0195612,30.7170102 C32.4806663,31.5988382 31.7948,32.3826854 30.8639815,32.9705707 C30.1781153,33.4604752 29.3452777,33.8034083 28.5124401,33.9993701 C27.9735452,34.097351 27.4836407,34.1463415 26.9937362,34.1463415 C26.9447458,34.1463415 26.8957553,34.1463415 26.8467649,34.1463415 L7.05462435,34.1463415 C4.60510201,34.1463415 2.35154145,32.8725898 1.07778983,30.8149911 C0.342933128,29.6882108 0,28.3654687 0,27.0917171 C0,26.0139273 0.244952234,24.9361375 0.734856703,23.9563285 L10.6799174,3.9682262 C11.8556881,1.5676943 14.3052105,0.0489904469 16.9996851,0 C18.3224271,0 19.5961787,0.391923575 20.722959,1.07778983 C21.8007489,1.76365609 22.7315673,2.74346502 23.3194527,3.91923575 L33.215523,23.8093572 C33.5094657,24.3482521 33.7054274,24.9361375 33.8523988,25.5240228 C33.9993701,26.0139273 34.0483606,26.5528222 34.0483606,27.0917171 C34.0483606,27.3856598 34.0483606,27.6796025 33.9993701,27.9735452 C33.9993701,27.9735452 33.9993701,28.0225356 33.9993701,28.0225356 Z M69.8603772,7.1036148 C69.8603772,7.8384715 69.7134059,8.67130909 69.4684537,9.4061658 L62.4628198,29.4432586 C61.4340204,32.2847045 58.7885362,34.1463415 55.800119,34.1463415 L55.7511285,34.1463415 C52.7137208,34.1463415 50.0682367,32.2847045 49.0884278,29.4432586 L42.0338034,9.4061658 C40.7600518,5.73188228 42.6706792,1.71466564 46.3939532,0.440914022 C47.1288099,0.146971341 47.912657,0 48.6965042,0 C51.635931,0 54.379396,1.86163698 55.359205,4.75207335 L55.7511285,5.82986318 L56.1430521,4.75207335 C57.4168037,1.07778983 61.4340204,-0.881828044 65.1572943,0.440914022 C68.0477307,1.42072296 69.8603772,4.16418798 69.8603772,7.1036148 Z" id="path-3"></path>
    </defs>
    <g id="logo-/-AV-/-b" stroke="none" stroke-width="1" fill="none" fill-rule="evenodd">
        <g id="circle">
            <g id="Oval-2">
                <mask id="mask-2" fill="white">
                    <use xlink:href="#path-1"></use>
                </mask>
                <use id="Mask" fill="#D8D8D8" xlink:href="#path-1"></use>
                <g id="🎨-/-Java-/-Light-Shade-01-/-#57DFD9" mask="url(#mask-2)" fill="#57DFD9">
                    <rect id="Rectangle" x="0" y="0" width="100" height="100"></rect>
                </g>
            </g>
            <g id="🎨-/-Java-/-Light-Shade-01-/-#57DFD9" transform="translate(15.000000, 33.000000)">
                <mask id="mask-4" fill="white">
                    <use xlink:href="#path-3"></use>
                </mask>
                <use id="Mask" fill="#1C988F" fill-rule="nonzero" xlink:href="#path-3"></use>
                <g id="🎨-/-True-V-/-Light-Shade-01-/-#ADA2FB" mask="url(#mask-4)" fill="#ADA2FB">
                    <g transform="translate(-15.000000, -33.000000)" id="#8B7DE5">
                        <rect x="0" y="0" width="100" height="100"></rect>
                    </g>
                </g>
            </g>
        </g>
    </g>
</svg>