<?xml version="1.0" encoding="UTF-8"?>
<svg width="87px" height="87px" viewBox="0 0 87 87" version="1.1" xmlns="http://www.w3.org/2000/svg" xmlns:xlink="http://www.w3.org/1999/xlink">
    <!-- Generator: Sketch 50.2 (55047) - http://www.bohemiancoding.com/sketch -->
    <title>Logo/Black/a</title>
    <desc>Created with Sketch.</desc>
    <defs>
        <circle id="path-1" cx="43.5" cy="43.5" r="43.5"></circle>
        <path d="M29.6280225,24.0193162 C29.4999475,24.8591525 29.2011058,25.6569969 28.774189,26.3288659 C28.3045806,27.0847185 27.7068972,27.7565875 26.8957553,28.2604892 C26.2980719,28.6804073 25.5723134,28.97435 24.8465549,29.1423172 C24.3769465,29.2263009 23.9500297,29.2682927 23.523113,29.2682927 C23.4804213,29.2682927 23.4377296,29.2682927 23.395038,29.2682927 L6.14760122,29.2682927 C4.01301746,29.2682927 2.04920041,28.1765056 0.939216853,26.4128495 C0.298841726,25.4470378 0,24.3132589 0,23.2214718 C0,22.297652 0.213458376,21.3738321 0.640375127,20.5339959 L9.30678518,3.40133674 C10.3313854,1.34373797 12.4659691,0.0419918116 14.8140113,0 C15.9666865,0 17.07667,0.335934493 18.0585786,0.923819855 C18.9977954,1.51170522 19.8089373,2.35154145 20.3212374,3.35934493 L28.9449557,20.4080204 C29.2011058,20.8699304 29.3718725,21.3738321 29.4999475,21.8777338 C29.6280225,22.297652 29.6707142,22.7595619 29.6707142,23.2214718 C29.6707142,23.4734227 29.6707142,23.7253736 29.6280225,23.9773244 C29.6280225,23.9773244 29.6280225,24.0193162 29.6280225,24.0193162 Z M60.8783287,6.08881268 C60.8783287,6.71868986 60.7502537,7.43255065 60.5367953,8.06242783 L54.4318858,25.2370788 C53.5353606,27.6726038 51.2300101,29.2682927 48.625818,29.2682927 L48.5831263,29.2682927 C45.9362424,29.2682927 43.630892,27.6726038 42.7770585,25.2370788 L36.6294573,8.06242783 C35.5194737,4.91304196 37.184449,1.46971341 40.4290163,0.377926304 C41.0693915,0.125975435 41.7524583,0 42.4355251,0 C44.9970256,0 47.3877594,1.59568884 48.2415929,4.07320572 L48.5831263,4.99702558 L48.9246597,4.07320572 C50.0346432,0.923819855 53.5353606,-0.755852609 56.7799279,0.377926304 C59.2987367,1.21776254 60.8783287,3.56930399 60.8783287,6.08881268 Z" id="path-3"></path>
    </defs>
    <g id="Logo/Black/a" stroke="none" stroke-width="1" fill="none" fill-rule="evenodd">
        <g id="circle">
            <g id="Oval-2">
                <mask id="mask-2" fill="white">
                    <use xlink:href="#path-1"></use>
                </mask>
                <use id="Mask" fill="#D8D8D8" xlink:href="#path-1"></use>
                <g id="🎨-/-Core-/-Black-/-#1E1E1E" mask="url(#mask-2)" fill="#1E1E1E">
                    <rect x="0" y="0" width="87" height="87"></rect>
                </g>
            </g>
            <g id="🎨-/-Java-/-Light-Shade-01-/-#57DFD9" transform="translate(13.000000, 29.000000)">
                <mask id="mask-4" fill="white">
                    <use xlink:href="#path-3"></use>
                </mask>
                <use id="Mask" fill="#1C988F" fill-rule="nonzero" xlink:href="#path-3"></use>
                <g id="🎨-/-Core-/-White-/-#FFF" mask="url(#mask-4)" fill="#FFFFFF">
                    <g transform="translate(-13.071429, -28.285714)" id="Rectangle">
                        <rect x="0" y="0" width="87" height="86"></rect>
                    </g>
                </g>
            </g>
        </g>
    </g>
</svg>