<?xml version="1.0" encoding="UTF-8"?>
<svg width="83px" height="10px" viewBox="0 0 83 10" version="1.1" xmlns="http://www.w3.org/2000/svg" xmlns:xlink="http://www.w3.org/1999/xlink">
    <!-- Generator: Sketch 59.1 (86144) - https://sketch.com -->
    <title>Path</title>
    <desc>Created with Sketch.</desc>
    <g id="Symbols" stroke="none" stroke-width="1" fill="none" fill-rule="evenodd">
        <path d="M81.8762368,4.65033326 C77.6261066,4.43158049 73.5632703,2.95864522 70.60979,0.523197788 C69.7597639,-0.176811055 68.5495574,-0.176811055 67.6995313,0.537781305 C61.4035758,5.77326411 49.4023607,5.83159818 42.9479257,0.523197788 C42.0978997,-0.176811055 40.8876931,-0.176811055 40.0376671,0.537781305 C33.7417115,5.77326411 21.7404964,5.83159818 15.2860614,0.523197788 C14.4360354,-0.176811055 13.2258288,-0.162227538 12.3758028,0.537781305 C9.46554418,2.95864522 5.40270786,4.43158049 1.10935601,4.65033326 C0.489845513,4.67950029 0,5.17533989 0,5.80243115 L0,8.13579396 C0,8.79205225 0.547474397,9.34622591 1.19579934,9.31705888 C5.84933171,9.09830611 10.3155702,7.65453788 13.8453394,5.24825748 C21.5964242,10.5129073 33.9001909,10.4691568 41.5072036,5.24825748 C49.2438813,10.5129073 61.5620552,10.4691568 69.1690679,5.24825748 C72.7132442,7.65453788 77.1794827,9.09830611 81.7897934,9.31705888 C82.4381184,9.34622591 82.9855928,8.79205225 82.9855928,8.13579396 L82.9855928,5.80243115 C82.9855928,5.17533989 82.4957473,4.67950029 81.8762368,4.65033326 L81.8762368,4.65033326 Z" id="Path" fill="#102EEA" fill-rule="nonzero" transform="translate(41.492796, 4.659080) scale(-1, 1) translate(-41.492796, -4.659080) "></path>
    </g>
</svg>