<?xml version="1.0" encoding="utf-8"?>
<!-- Generator: Adobe Illustrator 23.1.1, SVG Export Plug-In . SVG Version: 6.00 Build 0)  -->
<svg version="1.1" id="Layer_1" xmlns="http://www.w3.org/2000/svg" xmlns:xlink="http://www.w3.org/1999/xlink" x="0px" y="0px"
	 viewBox="0 0 141.732 141.732" enable-background="new 0 0 141.732 141.732" xml:space="preserve">
<path fill="#102EEA" d="M68.846,15.276l7.637-15.122l4.323,0.589l3.311,16.611l-3.595-0.489l-0.686-3.779l-5.725-0.778l-1.669,3.457
	L68.846,15.276z M79.348,10.353l-1.134-6.27l-0.124-0.017l-2.77,5.739L79.348,10.353z M88.3,19.197l-3.164-1.048l5.039-15.21
	l3.164,1.048L88.3,19.197z M92.643,14.244c1.71-3.289,4.9-4.46,8.035-2.829c2.817,1.464,4.079,4.394,2.197,8.016l-0.422,0.812
	l-7.257-3.772l-0.004,0.007c-0.825,1.588-0.397,3.053,1.081,3.822c0.978,0.509,1.968,0.485,2.688-0.171l2.633,1.597
	c-1.444,1.761-3.881,2.125-6.524,0.751C91.795,20.773,90.887,17.622,92.643,14.244z M100.622,16.964
	c0.646-1.276,0.234-2.654-1.043-3.317c-1.311-0.682-2.745-0.194-3.432,0.992L100.622,16.964z M111.931,23.632
	c0.366-0.702,0.239-1.629-0.655-2.367c-0.796-0.658-1.723-0.814-2.175-0.253c-0.376,0.442-0.299,1.001,0.41,1.901l1.399,1.722
	c1.495,1.853,1.708,3.378,0.608,4.723c-1.516,1.824-4.247,1.63-6.649-0.353c-2.457-2.027-3.064-4.365-1.842-6.339l2.639,1.955
	c-0.466,0.884-0.18,1.779,0.737,2.537c0.9,0.742,1.821,0.843,2.287,0.303c0.372-0.474,0.247-1.074-0.426-1.905l-1.342-1.645
	c-1.512-1.856-1.645-3.478-0.493-4.862c1.468-1.792,3.938-1.6,6.31,0.358c2.342,1.933,2.847,4.125,1.666,6.022L111.931,23.632z
	 M120.945,33.377c0.501-0.613,0.563-1.547-0.163-2.45c-0.647-0.805-1.523-1.144-2.079-0.687c-0.456,0.357-0.495,0.92,0.018,1.944
	l1.022,1.97c1.09,2.116,0.991,3.653-0.358,4.747c-1.852,1.481-4.488,0.738-6.441-1.688c-1.996-2.481-2.118-4.894-0.522-6.58
	l2.19,2.447c-0.635,0.772-0.536,1.707,0.209,2.633c0.732,0.909,1.614,1.194,2.178,0.76c0.46-0.39,0.459-1.002-0.033-1.952
	l-0.982-1.882c-1.106-2.123-0.909-3.739,0.499-4.861c1.8-1.458,4.18-0.772,6.108,1.624c1.903,2.366,1.955,4.614,0.416,6.234
	L120.945,33.377z M119.9,40.34c2.39-1.216,4.068,0.325,5.342,2.344c1.128,1.768,1.608,2.454,2.308,2.089
	c0.895-0.465,1.113-1.277,0.592-2.302c-0.542-1.066-1.387-1.434-2.2-1.274l-1.174-2.859c2.159-0.582,4.234,0.46,5.574,3.093
	c1.177,2.314,1.214,5.041-1.337,6.338l-7.219,3.672l-1.433-2.815l1.485-0.755l-0.043-0.084c-1.262-0.016-2.473-0.689-3.278-2.271
	C117.477,43.476,117.781,41.418,119.9,40.34z M124.111,46.548l1.135-0.578c-0.418-0.235-1.11-1.216-1.53-1.817
	c-0.679-0.971-1.441-1.452-2.277-1.027c-0.816,0.416-0.908,1.286-0.443,2.2C121.66,46.628,122.989,47.119,124.111,46.548z
	 M123.28,56.327l-0.827-3.229l11.642-2.981l0.788,3.078l-2.054,0.526l0.034,0.136c1.491,0.176,2.66,1.209,3.102,2.937
	c0.622,2.425-0.639,4.444-3.352,5.139L125.2,63.83l-0.826-3.228l6.836-1.751c1.427-0.357,2.076-1.355,1.745-2.651
	c-0.334-1.304-1.443-1.974-2.945-1.596L123.28,56.327z M125.632,73.572l1.925-0.045l-0.003-0.149
	c-1.012-0.438-2.155-1.422-2.2-3.362c-0.065-2.738,2.053-4.925,6.074-5.019c4.131-0.097,6.234,2.085,6.295,4.722
	c0.047,2.011-1.128,3.001-2.095,3.47l0.002,0.102l6.024-0.141l0.078,3.333l-16.023,0.376L125.632,73.572z M135.095,70.845
	c-0.038-1.651-1.49-2.494-3.572-2.445c-2.097,0.049-3.532,0.975-3.493,2.61c0.038,1.604,1.468,2.494,3.612,2.444
	C133.785,73.404,135.133,72.465,135.095,70.845z M137.21,80.814l-0.543,3.187l-2.068-0.352l-0.022,0.123
	c1.393,0.682,1.98,1.893,1.754,3.228c-0.108,0.633-0.373,1.16-0.708,1.547l-2.549-1.45c0.207-0.283,0.392-0.624,0.468-1.072
	c0.226-1.327-0.591-2.546-2.04-2.801l-6.706-1.141l0.56-3.288L137.21,80.814z M129.804,88.49c3.498,1.272,5.063,4.247,3.814,7.68
	c-1.246,3.425-4.359,4.706-7.857,3.433c-3.477-1.265-5.046-4.249-3.8-7.674C123.209,88.496,126.327,87.225,129.804,88.49z
	 M126.94,96.429c1.97,0.717,3.719,0.438,4.284-1.113c0.575-1.58-0.586-2.918-2.556-3.635c-1.97-0.716-3.711-0.434-4.287,1.145
	C123.816,94.377,124.97,95.713,126.94,96.429z M115.961,110.697l-0.094,0.115l7.015,10.697l-2.37,2.919l-8.97-14.403l2.754-3.394
	l15.945,5.809l-2.375,2.925L115.961,110.697z M114.647,123.908l-2.539,2.161l-7.793-9.154l2.539-2.161L114.647,123.908z
	 M116.761,126.199c0.614,0.722,0.453,1.824-0.28,2.448c-0.739,0.63-1.853,0.612-2.467-0.109c-0.619-0.728-0.459-1.831,0.281-2.46
	C115.028,125.454,116.142,125.472,116.761,126.199z M105.029,120.907c1.404,2.286,0.003,4.083-1.907,5.514
	c-1.672,1.267-2.318,1.801-1.897,2.47c0.535,0.855,1.363,1.007,2.342,0.405c1.019-0.627,1.318-1.499,1.094-2.297l2.756-1.4
	c0.753,2.108-0.118,4.259-2.637,5.806c-2.212,1.36-4.928,1.616-6.427-0.822l-4.243-6.903l2.691-1.655l0.872,1.419l0.08-0.049
	c-0.086-1.26,0.488-2.521,2.001-3.451C101.708,118.744,103.784,118.881,105.029,120.907z M99.178,125.605l0.667,1.086
	c0.2-0.435,1.124-1.204,1.69-1.671c0.913-0.754,1.331-1.553,0.84-2.352c-0.479-0.779-1.355-0.801-2.228-0.265
	C98.901,123.168,98.519,124.532,99.178,125.605z M89.841,135.551l2.107-0.826l-2.114-5.394c-0.316-0.868-0.859-0.924-1.479-0.682
	c-0.291,0.114-0.594,0.308-0.733,0.405l-1.398-2.126c0.277-0.218,0.782-0.601,1.57-0.952c2.218-0.971,4.138-0.47,4.981,1.722
	l2.278,5.809l1.531-0.6l0.914,2.333l-1.531,0.6l1.051,2.682l-3.105,1.218l-1.051-2.683l-2.107,0.826L89.841,135.551z
	 M86.643,133.036c0.713,3.659-1.033,6.536-4.622,7.235c-3.582,0.697-6.288-1.312-7-4.971c-0.708-3.635,1.044-6.522,4.625-7.22
	C83.236,127.381,85.934,129.4,86.643,133.036z M78.354,134.675c0.401,2.06,1.543,3.417,3.165,3.101
	c1.653-0.323,2.202-2.009,1.8-4.069c-0.401-2.06-1.541-3.409-3.194-3.087C78.503,130.936,77.953,132.614,78.354,134.675z
	 M72.58,141.308l-3.231,0.051l-0.032-2.097l-0.125,0.002c-0.416,1.493-1.498,2.292-2.852,2.314c-0.642,0.01-1.208-0.154-1.65-0.413
	l0.958-2.77c0.315,0.152,0.685,0.271,1.138,0.264c1.346-0.021,2.394-1.046,2.379-2.517l-0.107-6.799l3.333-0.053L72.58,141.308z
	 M63.573,135.344c-0.638,3.65-3.326,5.728-6.807,5.121c-3.127-0.546-5.214-2.958-4.511-6.979l0.156-0.901l8.057,1.406l0.001-0.007
	c0.308-1.764-0.542-3.032-2.183-3.318c-1.086-0.19-2.022,0.131-2.511,0.974l-2.992-0.729c0.846-2.114,3.058-3.196,5.993-2.684
	C62.41,128.863,64.227,131.592,63.573,135.344z M55.145,135.158c-0.231,1.411,0.578,2.6,1.995,2.848
	c1.455,0.254,2.676-0.644,2.973-1.981L55.145,135.158z M37.801,126.806l7.226,3.535l-1.073,2.193L36.728,129L37.801,126.806z
	 M20.114,126.857l4.581-10.694l-0.132-0.134l-10.769,4.403l-2.93-2.978l11.422-11.235l2.304,2.342l-7.435,7.313l0.094,0.094
	l10.287-4.301l1.569,1.595l-4.5,10.242l0.094,0.095l7.462-7.34l2.304,2.342l-11.423,11.235L20.114,126.857z M8.94,112.429
	c-0.801,0.505-1.869,0.189-2.382-0.625c-0.517-0.821-0.341-1.921,0.459-2.425c0.807-0.51,1.875-0.194,2.393,0.627
	C9.923,110.82,9.747,111.919,8.94,112.429z M11.506,110.662l-1.777-2.819l10.163-6.408l1.777,2.819L11.506,110.662z M17.285,96.483
	l1.49,2.981l-14.333,7.167l-1.49-2.981L17.285,96.483z M13.228,96.23c-2.557,0.818-3.969-0.974-4.902-3.175
	c-0.83-1.93-1.195-2.684-1.946-2.436c-0.959,0.315-1.306,1.084-0.955,2.18c0.365,1.14,1.141,1.641,1.971,1.614l0.701,3.014
	c-2.229,0.228-4.111-1.134-5.012-3.954c-0.792-2.475-0.389-5.177,2.34-6.049l7.726-2.47l0.963,3.013l-1.589,0.508l0.029,0.09
	c1.245,0.218,2.333,1.078,2.874,2.771C16.127,93.52,15.495,95.505,13.228,96.23z M10.064,89.417l-1.216,0.388
	c0.375,0.299,0.902,1.381,1.221,2.043c0.514,1.069,1.19,1.666,2.084,1.38c0.873-0.279,1.104-1.125,0.791-2.102
	C12.499,89.732,11.265,89.034,10.064,89.417z M12.471,79.925l0.299,3.319L0.8,84.324L0.515,81.16l2.112-0.191l-0.013-0.14
	c-1.444-0.412-2.432-1.62-2.593-3.396c-0.225-2.494,1.342-4.286,4.132-4.537l7.622-0.688l0.3,3.319l-7.03,0.635
	c-1.466,0.124-2.266,1.005-2.146,2.338c0.121,1.341,1.108,2.178,2.652,2.047L12.471,79.925z M5.857,70.056
	c-3.688-0.494-5.851-3.064-5.366-6.682c0.484-3.611,3.249-5.527,6.937-5.032c3.665,0.491,5.835,3.069,5.351,6.68
	C12.294,68.641,9.522,70.548,5.857,70.056z M6.956,61.694c-2.077-0.279-3.725,0.368-3.944,2.002
	c-0.223,1.667,1.197,2.724,3.273,3.002c2.076,0.279,3.717-0.369,3.94-2.034C10.444,63.029,9.032,61.972,6.956,61.694z
	 M13.766,53.873c1.918,0.817,3.775,2.329,4.567,2.968l-0.641,2.063c-0.807-0.489-2.711-1.719-4.715-2.441l-0.825-0.297l0.818-2.631
	L13.766,53.873z M19.169,44.96l-1.561,3.004L3.4,40.579l1.561-3.004L19.169,44.96z M16.027,32.342l-1.276,1.864l4.772,3.267
	c0.748,0.541,1.228,0.283,1.603-0.266c0.177-0.258,0.318-0.588,0.378-0.745l2.346,0.972c-0.106,0.334-0.309,0.935-0.762,1.666
	c-1.288,2.046-3.154,2.71-5.08,1.372l-5.139-3.52l-0.927,1.354l-2.064-1.413l0.927-1.354l-2.373-1.625l1.881-2.747l2.373,1.625
	l1.276-1.864L16.027,32.342z M21.943,34.479c-1.918-1.882-0.991-3.969,0.52-5.822c1.319-1.636,1.817-2.311,1.246-2.86
	c-0.727-0.702-1.568-0.649-2.375,0.172c-0.839,0.856-0.919,1.776-0.508,2.498l-2.34,2.028c-1.243-1.866-0.915-4.168,1.158-6.283
	c1.821-1.856,4.4-2.762,6.447-0.754l5.794,5.683l-2.216,2.259l-1.191-1.168L28.412,30.3c0.388,1.204,0.135,2.569-1.11,3.839
	C25.696,35.778,23.644,36.146,21.943,34.479z M26.495,28.496l-0.911-0.895c-0.09,0.472-0.801,1.443-1.238,2.034
	c-0.705,0.955-0.918,1.832-0.247,2.49c0.654,0.642,1.511,0.451,2.23-0.282C27.353,30.798,27.395,29.38,26.495,28.496z
	 M36.229,26.041l-2.669,1.991l-9.576-12.831l2.669-1.991L36.229,26.041z M30.203,11.896c-0.488-0.81-0.152-1.871,0.672-2.367
	c0.83-0.5,1.926-0.303,2.414,0.508c0.492,0.816,0.155,1.877-0.675,2.377C31.79,12.91,30.695,12.713,30.203,11.896z M31.916,14.495
	l2.852-1.718l6.197,10.281l-2.852,1.718L31.916,14.495z M40.902,19.002c-1.011-2.484,0.665-4.028,2.784-5.128
	c1.857-0.976,2.581-1.398,2.276-2.126c-0.387-0.931-1.179-1.217-2.244-0.783c-1.109,0.452-1.546,1.263-1.456,2.087l-2.948,0.93
	c-0.399-2.201,0.814-4.181,3.551-5.296c2.405-0.98,5.127-0.787,6.206,1.864l3.055,7.504l-2.926,1.191l-0.629-1.542l-0.086,0.035
	c-0.122,1.257-0.895,2.407-2.539,3.077C43.826,21.68,41.799,21.204,40.902,19.002z M47.444,15.325l-0.48-1.18
	c-0.269,0.397-1.306,1.004-1.94,1.373c-1.025,0.595-1.568,1.313-1.215,2.183c0.345,0.847,1.206,1.012,2.155,0.626
	C47.319,17.775,47.919,16.492,47.444,15.325z M65.953,10.171l-7.996,0.879L57.69,8.624l7.996-0.88L65.953,10.171z"/>
</svg>
