<svg width="633" height="512" viewBox="0 0 633 512" fill="none" xmlns="http://www.w3.org/2000/svg">
<g opacity="0.5">
<g opacity="0.5">
<path opacity="0.5" d="M93.5398 445.442H91.4468V456.956H93.5398V445.442Z" fill="#47E6B1"/>
<path opacity="0.5" d="M98.2471 452.249V450.156H86.7334V452.249H98.2471Z" fill="#47E6B1"/>
</g>
<g opacity="0.5">
<path opacity="0.5" d="M520.815 15.1387H518.781V26.6524H520.815V15.1387Z" fill="#47E6B1"/>
<path opacity="0.5" d="M525.552 21.9155V19.8818H514.038V21.9155H525.552Z" fill="#47E6B1"/>
</g>
<g opacity="0.5">
<path opacity="0.5" d="M567.263 340.539H565.229V352.389H567.263V340.539Z" fill="#47E6B1"/>
<path opacity="0.5" d="M572.168 347.484V345.45H560.318V347.484H572.168Z" fill="#47E6B1"/>
</g>
<g opacity="0.5">
<path opacity="0.5" d="M100.149 44.1201H98.1157V55.6338H100.149V44.1201Z" fill="#47E6B1"/>
<path opacity="0.5" d="M104.893 50.897V48.8633H93.3789V50.897H104.893Z" fill="#47E6B1"/>
</g>
<path opacity="0.5" d="M160.288 486.576C159.129 486.072 158.532 484.78 158.899 483.57C158.929 483.48 158.948 483.387 158.956 483.292C158.969 482.753 158.637 482.265 158.131 482.078C157.625 481.891 157.056 482.047 156.715 482.465C156.659 482.542 156.612 482.624 156.576 482.712C156.072 483.871 154.779 484.468 153.57 484.101C153.48 484.071 153.387 484.052 153.292 484.044C152.753 484.031 152.265 484.363 152.078 484.869C151.891 485.375 152.047 485.944 152.465 486.285C152.542 486.341 152.624 486.388 152.712 486.424C153.871 486.928 154.468 488.22 154.101 489.43C154.071 489.52 154.052 489.613 154.044 489.708C154.031 490.247 154.363 490.735 154.869 490.922C155.375 491.109 155.944 490.953 156.285 490.535C156.341 490.458 156.388 490.376 156.424 490.288C156.928 489.129 158.221 488.532 159.43 488.899C159.52 488.929 159.613 488.948 159.708 488.956C160.247 488.969 160.735 488.637 160.922 488.131C161.109 487.625 160.953 487.056 160.535 486.715C160.458 486.659 160.376 486.612 160.288 486.576Z" fill="#4D8AF0"/>
<path opacity="0.5" d="M289.288 494.576C288.129 494.072 287.532 492.78 287.899 491.57C287.929 491.48 287.948 491.387 287.956 491.292C287.969 490.753 287.637 490.265 287.131 490.078C286.625 489.891 286.056 490.047 285.715 490.465C285.659 490.542 285.612 490.624 285.576 490.712C285.072 491.871 283.779 492.468 282.57 492.101C282.48 492.071 282.387 492.052 282.292 492.044C281.753 492.031 281.265 492.363 281.078 492.869C280.891 493.375 281.047 493.944 281.465 494.285C281.542 494.341 281.624 494.388 281.712 494.424C282.871 494.928 283.468 496.22 283.101 497.43C283.071 497.52 283.052 497.613 283.044 497.708C283.031 498.247 283.363 498.735 283.869 498.922C284.375 499.109 284.944 498.953 285.285 498.535C285.341 498.458 285.388 498.376 285.424 498.288C285.928 497.129 287.22 496.532 288.43 496.899C288.52 496.929 288.613 496.948 288.708 496.956C289.247 496.969 289.735 496.637 289.922 496.131C290.109 495.625 289.953 495.056 289.535 494.715C289.458 494.659 289.376 494.612 289.288 494.576Z" fill="#4D8AF0"/>
<path opacity="0.5" d="M542.289 156.576C541.129 156.072 540.532 154.779 540.899 153.57C540.929 153.48 540.948 153.387 540.956 153.292C540.969 152.753 540.637 152.265 540.131 152.078C539.625 151.891 539.056 152.047 538.715 152.465C538.659 152.542 538.612 152.624 538.576 152.712C538.072 153.871 536.78 154.468 535.57 154.101C535.48 154.071 535.387 154.052 535.292 154.044C534.753 154.031 534.265 154.363 534.078 154.869C533.891 155.375 534.047 155.944 534.465 156.285C534.542 156.341 534.624 156.388 534.712 156.424C535.871 156.928 536.468 158.221 536.101 159.43C536.071 159.52 536.052 159.613 536.044 159.708C536.031 160.247 536.363 160.735 536.869 160.922C537.375 161.109 537.944 160.953 538.285 160.535C538.341 160.458 538.388 160.376 538.424 160.288C538.928 159.129 540.22 158.532 541.43 158.899C541.52 158.929 541.613 158.948 541.708 158.956C542.247 158.969 542.735 158.637 542.922 158.131C543.109 157.625 542.953 157.056 542.535 156.715C542.458 156.659 542.376 156.612 542.289 156.576Z" fill="#4D8AF0"/>
<path opacity="0.5" d="M43.2885 341.576C42.1292 341.072 41.5317 339.78 41.8994 338.57C41.9293 338.48 41.9484 338.387 41.9562 338.292C41.9688 337.753 41.6372 337.265 41.1309 337.078C40.6246 336.891 40.0555 337.047 39.7147 337.465C39.6588 337.542 39.6122 337.624 39.5758 337.712C39.0723 338.871 37.7795 339.468 36.5702 339.101C36.4802 339.071 36.387 339.052 36.2924 339.044C35.7529 339.031 35.265 339.363 35.0782 339.869C34.8913 340.375 35.0469 340.944 35.4653 341.285C35.5416 341.341 35.6242 341.388 35.7115 341.424C36.8708 341.928 37.4683 343.22 37.1006 344.43C37.0707 344.52 37.0516 344.613 37.0438 344.708C37.0312 345.247 37.3628 345.735 37.8691 345.922C38.3754 346.109 38.9445 345.953 39.2853 345.535C39.3412 345.458 39.3878 345.376 39.4242 345.288C39.9277 344.129 41.2205 343.532 42.4298 343.899C42.5198 343.929 42.613 343.948 42.7076 343.956C43.2471 343.969 43.735 343.637 43.9218 343.131C44.1087 342.625 43.9531 342.056 43.5347 341.715C43.4584 341.659 43.3758 341.612 43.2885 341.576Z" fill="#4D8AF0"/>
<path opacity="0.5" d="M34 172C36.2091 172 38 170.209 38 168C38 165.791 36.2091 164 34 164C31.7909 164 30 165.791 30 168C30 170.209 31.7909 172 34 172Z" fill="#ADA2FB"/>
<path opacity="0.5" d="M377 32C379.209 32 381 30.2091 381 28C381 25.7909 379.209 24 377 24C374.791 24 373 25.7909 373 28C373 30.2091 374.791 32 377 32Z" fill="#4D8AF0"/>
<path opacity="0.5" d="M145 21C147.209 21 149 19.2091 149 17C149 14.7909 147.209 13 145 13C142.791 13 141 14.7909 141 17C141 19.2091 142.791 21 145 21Z" fill="#47E6B1"/>
<path opacity="0.5" d="M457 469C459.209 469 461 467.209 461 465C461 462.791 459.209 461 457 461C454.791 461 453 462.791 453 465C453 467.209 454.791 469 457 469Z" fill="#ADA2FB"/>
</g>
<path opacity="0.5" d="M386.333 180.907V512H352.2L318.067 146.773L386.333 180.907Z" fill="url(#paint0_linear)"/>
<path opacity="0.5" d="M352.2 146.773V512H215.667V180.907L352.2 146.773Z" fill="url(#paint1_linear)"/>
<path d="M329.444 124.018L352.2 180.907H386.333V124.018H329.444Z" fill="#BEEEFF"/>
<path d="M352.2 124.018H215.667V180.907H352.2V124.018Z" fill="#DDF6FF"/>
<path d="M365.444 0L386.333 56.889L301 91.022L343.223 0H365.444Z" fill="#BEEEFF"/>
<path d="M343.223 0L356.91 56.889L301 91.022L215.667 56.889L236.556 0H343.223Z" fill="#DDF6FF"/>
<path d="M386.333 56.8887H356.91L301 135.964C300.989 135.975 465.921 101.876 465.921 101.876C465.944 101.865 465.955 101.842 465.978 101.83C445.134 83.6717 416.12 66.7307 386.333 56.8887Z" fill="#0016A2"/>
<path d="M409.055 101.877L356.911 146.774H386.334C416.098 136.944 445.077 120.025 465.922 101.877H409.055Z" fill="#5569E1"/>
<path d="M409.089 101.831C409.055 101.877 301 136.01 301 136.01L136.079 101.877C136.056 101.866 136.045 101.843 136.022 101.831C156.866 83.6717 185.879 66.7307 215.666 56.8887H356.91C376.423 66.7307 395.436 83.6717 409.089 101.831Z" fill="#102EEA"/>
<path d="M136.079 101.877C156.923 120.025 185.902 136.943 215.667 146.774H356.91C376.412 136.944 395.401 120.013 409.054 101.877H136.079Z" fill="#6C7FF7"/>
<path d="M275.4 352.142V397.653C275.4 402.366 279.22 406.186 283.933 406.186C288.646 406.186 292.466 402.365 292.466 397.653V352.142H275.4Z" fill="#FBC566"/>
<path d="M309.533 352.142V397.653C309.533 402.366 313.353 406.186 318.066 406.186C322.78 406.186 326.599 402.365 326.599 397.653V352.142H309.533Z" fill="#FBC566"/>
<path d="M269.711 286.72C264.997 286.72 261.178 290.541 261.178 295.253V320.284H278.245V295.253C278.244 290.541 274.425 286.72 269.711 286.72Z" fill="#FBC566"/>
<path d="M303.844 286.72C299.13 286.72 295.311 290.541 295.311 295.253V329.386H312.378V295.253C312.378 290.541 308.558 286.72 303.844 286.72Z" fill="#FBC566"/>
<path d="M348.787 352.142L352.2 406.186C356.914 406.186 360.733 402.365 360.733 397.653V363.52L348.787 352.142Z" fill="#F9B233"/>
<path d="M343.667 352.142V397.653C343.667 402.366 347.486 406.186 352.2 406.186V357.83L343.667 352.142Z" fill="#FBC566"/>
<path d="M360.733 318.009C360.733 313.296 356.913 309.476 352.2 309.476L340.822 336.498L352.2 363.52H360.733V318.009Z" fill="#FEECCC"/>
<path d="M249.8 309.476C245.086 309.476 241.267 313.297 241.267 318.009C241.267 322.722 245.087 326.542 249.8 326.542H261.178V346.453C261.178 355.84 268.858 363.52 278.245 363.52H352.2V309.476H249.8Z" fill="white"/>
<defs>
<linearGradient id="paint0_linear" x1="352.2" y1="512" x2="352.2" y2="146.773" gradientUnits="userSpaceOnUse">
<stop stop-color="#D6FFFD" stop-opacity="0.5"/>
<stop offset="1" stop-color="#ADFFFB"/>
</linearGradient>
<linearGradient id="paint1_linear" x1="283.933" y1="496.051" x2="283.933" y2="146.773" gradientUnits="userSpaceOnUse">
<stop stop-color="#ECFFFF" stop-opacity="0.5"/>
<stop offset="1" stop-color="#D5FEFD"/>
</linearGradient>
</defs>
</svg>
