<svg width="544" height="512" fill="none" xmlns="http://www.w3.org/2000/svg"><g opacity=".5"><g opacity=".5" fill="#47E6B1"><path opacity=".5" d="M63.657 445.442h-2.096v11.514h2.096v-11.514z"/><path opacity=".5" d="M68.374 452.249v-2.093H56.839v2.093h11.535z"/></g><g opacity=".5" fill="#47E6B1"><path opacity=".5" d="M491.721 15.139h-2.038v11.513h2.038V15.14z"/><path opacity=".5" d="M496.466 21.916v-2.034h-11.535v2.034h11.535z"/></g><g opacity=".5" fill="#47E6B1"><path opacity=".5" d="M538.254 340.539h-2.037v11.85h2.037v-11.85z"/><path opacity=".5" d="M543.168 347.484v-2.034h-11.871v2.034h11.871z"/></g><g opacity=".5" fill="#47E6B1"><path opacity=".5" d="M70.28 44.12h-2.038v11.514h2.037V44.12z"/><path opacity=".5" d="M75.031 50.897v-2.034H63.496v2.034h11.535z"/></g><path opacity=".5" d="M130.529 486.576a2.487 2.487 0 01-1.392-3.006c.03-.09.049-.183.057-.278a1.267 1.267 0 00-2.246-.827 1.224 1.224 0 00-.139.247 2.494 2.494 0 01-3.011 1.389 1.194 1.194 0 00-.278-.057 1.262 1.262 0 00-.829 2.241c.077.056.159.103.247.139a2.488 2.488 0 011.392 3.006c-.03.09-.049.183-.057.278a1.267 1.267 0 002.245.827c.056-.077.103-.159.139-.247a2.496 2.496 0 013.012-1.389c.09.03.183.049.278.057a1.264 1.264 0 00.829-2.241 1.203 1.203 0 00-.247-.139zM259.767 494.576a2.487 2.487 0 01-1.392-3.006c.03-.09.049-.183.057-.278a1.267 1.267 0 00-2.246-.827 1.224 1.224 0 00-.139.247 2.494 2.494 0 01-3.011 1.389 1.205 1.205 0 00-.278-.057 1.262 1.262 0 00-.829 2.241c.076.056.159.103.247.139a2.486 2.486 0 011.391 3.006c-.03.09-.049.183-.057.278a1.265 1.265 0 002.246.827c.056-.077.103-.159.139-.247a2.495 2.495 0 013.011-1.389c.091.03.184.049.279.057a1.264 1.264 0 001.216-.825 1.26 1.26 0 00-.388-1.416 1.17 1.17 0 00-.246-.139zM513.233 156.576a2.487 2.487 0 01-1.391-3.006c.03-.09.049-.183.057-.278a1.265 1.265 0 00-2.246-.827 1.177 1.177 0 00-.139.247 2.495 2.495 0 01-3.011 1.389 1.203 1.203 0 00-.279-.057 1.262 1.262 0 00-.828 2.241c.076.056.159.103.247.139a2.487 2.487 0 011.391 3.006c-.03.09-.049.183-.057.278a1.265 1.265 0 002.246.827c.056-.077.103-.159.139-.247a2.495 2.495 0 013.011-1.389c.09.03.184.049.278.057a1.262 1.262 0 00.829-2.241 1.153 1.153 0 00-.247-.139zM13.313 341.576a2.487 2.487 0 01-1.392-3.006c.03-.09.05-.183.057-.278a1.267 1.267 0 00-2.246-.827 1.199 1.199 0 00-.139.247 2.495 2.495 0 01-3.01 1.389 1.202 1.202 0 00-.279-.057 1.261 1.261 0 00-.829 2.241c.077.056.16.103.247.139a2.487 2.487 0 011.392 3.006c-.03.09-.05.183-.057.278a1.267 1.267 0 002.246.827c.055-.077.102-.159.139-.247a2.495 2.495 0 013.01-1.389c.09.03.184.049.28.057a1.261 1.261 0 00.829-2.241 1.178 1.178 0 00-.248-.139z" fill="#4D8AF0"/><path opacity=".5" d="M4.007 172a4.004 4.004 0 004.008-4c0-2.209-1.794-4-4.008-4A4.004 4.004 0 000 168c0 2.209 1.794 4 4.007 4z" fill="#ADA2FB"/><path opacity=".5" d="M347.64 32a4.004 4.004 0 004.008-4c0-2.21-1.795-4-4.008-4a4.004 4.004 0 00-4.007 4c0 2.21 1.794 4 4.007 4z" fill="#4D8AF0"/><path opacity=".5" d="M115.212 21a4.004 4.004 0 004.007-4c0-2.21-1.794-4-4.007-4a4.004 4.004 0 00-4.007 4c0 2.21 1.794 4 4.007 4z" fill="#47E6B1"/><path opacity=".5" d="M427.788 469a4.004 4.004 0 004.007-4c0-2.209-1.794-4-4.007-4a4.004 4.004 0 00-4.008 4c0 2.209 1.794 4 4.008 4z" fill="#ADA2FB"/></g><path opacity=".5" d="M356.99 180.907V512h-34.196l-34.196-365.227 68.392 34.134z" fill="url(#paint0_linear)"/><path opacity=".5" d="M322.794 146.773V512H186.009V180.907l136.785-34.134z" fill="url(#paint1_linear)"/><path d="M299.996 124.018l22.798 56.889h34.196v-56.889h-56.994z" fill="#BEEEFF"/><path d="M322.794 124.018H186.009v56.889h136.785v-56.889z" fill="#DDF6FF"/><path d="M336.063 0l20.927 56.889-85.49 34.133L313.801 0h22.262z" fill="#BEEEFF"/><path d="M313.801 0l13.712 56.889L271.5 91.022l-85.491-34.133L206.937 0h106.864z" fill="#DDF6FF"/><path d="M356.99 56.889h-29.477L271.5 135.964c-.011.011 165.225-34.088 165.225-34.088.023-.011.034-.034.057-.046-20.882-18.158-49.95-35.1-79.792-44.941z" fill="#0016A2"/><path d="M379.754 101.877l-52.24 44.897h29.477c29.819-9.83 58.852-26.749 79.735-44.897h-56.972z" fill="#5569E1"/><path d="M379.788 101.831c-.034.046-108.288 34.179-108.288 34.179l-165.226-34.133c-.023-.011-.034-.034-.057-.046 20.883-18.16 49.949-35.1 79.791-44.942h141.505c19.549 9.842 38.597 26.783 52.275 44.942z" fill="#102EEA"/><path d="M106.274 101.877c20.883 18.148 49.915 35.066 79.735 44.897h141.504c19.538-9.83 38.562-26.761 52.24-44.897H106.274z" fill="#6C7FF7"/><path d="M245.853 352.142v45.511c0 4.713 3.827 8.533 8.548 8.533 4.722 0 8.549-3.821 8.549-8.533v-45.511h-17.097zM280.048 352.142v45.511c0 4.713 3.827 8.533 8.549 8.533 4.723 0 8.549-3.821 8.549-8.533v-45.511h-17.098zM240.153 286.72c-4.723 0-8.549 3.821-8.549 8.533v25.031h17.098v-25.031c-.001-4.712-3.827-8.533-8.549-8.533zM274.349 286.72c-4.723 0-8.549 3.821-8.549 8.533v34.133h17.098v-34.133c0-4.712-3.827-8.533-8.549-8.533z" fill="#FBC566"/><path d="M319.375 352.142l3.419 54.044c4.723 0 8.549-3.821 8.549-8.533V363.52l-11.968-11.378z" fill="#F9B233"/><path d="M314.246 352.142v45.511c0 4.713 3.826 8.533 8.548 8.533V357.83l-8.548-5.688z" fill="#FBC566"/><path d="M331.343 318.009c0-4.713-3.827-8.533-8.549-8.533l-11.399 27.022 11.399 27.022h8.549v-45.511z" fill="#FEECCC"/><path d="M220.205 309.476c-4.722 0-8.548 3.821-8.548 8.533 0 4.713 3.827 8.533 8.548 8.533h11.399v19.911c0 9.387 7.695 17.067 17.099 17.067h74.091v-54.044H220.205z" fill="#fff"/><defs><linearGradient id="paint0_linear" x1="322.794" y1="512" x2="322.794" y2="146.773" gradientUnits="userSpaceOnUse"><stop stop-color="#D6FFFD" stop-opacity=".5"/><stop offset="1" stop-color="#ADFFFB"/></linearGradient><linearGradient id="paint1_linear" x1="254.402" y1="496.051" x2="254.402" y2="146.773" gradientUnits="userSpaceOnUse"><stop stop-color="#ECFFFF" stop-opacity=".5"/><stop offset="1" stop-color="#D5FEFD"/></linearGradient></defs></svg>