<?xml version="1.0" encoding="UTF-8"?>
<svg width="633px" height="512px" viewBox="0 0 633 512" version="1.1" xmlns="http://www.w3.org/2000/svg" xmlns:xlink="http://www.w3.org/1999/xlink">
    <!-- Generator: Sketch 50.2 (55047) - http://www.bohemiancoding.com/sketch -->
    <title>404</title>
    <desc>Created with Sketch.</desc>
    <defs>
        <text id="text-1" font-family="InterUI-Black, Inter UI" font-size="288" font-weight="700" fill="#FFFFFF">
            <tspan x="0.0909090909" y="360">404</tspan>
        </text>
        <filter x="-5.2%" y="-9.1%" width="115.4%" height="127.0%" filterUnits="objectBoundingBox" id="filter-2">
            <feOffset dx="15" dy="15" in="SourceAlpha" result="shadowOffsetOuter1"></feOffset>
            <feGaussianBlur stdDeviation="13" in="shadowOffsetOuter1" result="shadowBlurOuter1"></feGaussianBlur>
            <feColorMatrix values="0 0 0 0 0   0 0 0 0 0   0 0 0 0 0  0 0 0 0.0998358243 0" type="matrix" in="shadowBlurOuter1"></feColorMatrix>
        </filter>
        <linearGradient x1="50%" y1="100%" x2="50%" y2="3.061617e-15%" id="linearGradient-3">
            <stop stop-color="#D6FFFD" stop-opacity="0.5" offset="0%"></stop>
            <stop stop-color="#ADFFFB" offset="100%"></stop>
        </linearGradient>
        <linearGradient x1="50%" y1="95.6331286%" x2="50%" y2="0%" id="linearGradient-4">
            <stop stop-color="#ECFFFF" stop-opacity="0.5" offset="0%"></stop>
            <stop stop-color="#D5FEFD" offset="100%"></stop>
        </linearGradient>
    </defs>
    <g id="Page-1" stroke="none" stroke-width="1" fill="none" fill-rule="evenodd">
        <g id="404" transform="translate(-1.000000, 0.000000)">
            <g fill="#FFFFFF" fill-opacity="1">
                <use filter="url(#filter-2)" xlink:href="#text-1"></use>
                <use xlink:href="#text-1"></use>
            </g>
            <g id="Group-2" transform="translate(31.000000, 13.000000)" fill-rule="nonzero" opacity="0.5">
                <g id="Group" transform="translate(56.000000, 432.000000)" fill="#47E6B1">
                    <rect id="Rectangle-path" x="5.447" y="0.442105263" width="2.093" height="11.5136842"></rect>
                    <rect id="Rectangle-path" transform="translate(6.490250, 6.202105) rotate(90.000000) translate(-6.490250, -6.202105) " x="5.44375" y="0.445263158" width="2.093" height="11.5136842"></rect>
                </g>
                <g id="Group" transform="translate(484.000000, 2.000000)" fill="#47E6B1">
                    <rect id="Rectangle-path" x="4.78105263" y="0.138947368" width="2.03368421" height="11.5136842"></rect>
                    <rect id="Rectangle-path" transform="translate(5.794737, 5.898947) rotate(90.000000) translate(-5.794737, -5.898947) " x="4.77789474" y="0.142105263" width="2.03368421" height="11.5136842"></rect>
                </g>
                <g id="Group" transform="translate(530.000000, 327.000000)" fill="#47E6B1">
                    <rect id="Rectangle-path" x="5.22947368" y="0.5395" width="2.03368421" height="11.8495"></rect>
                    <rect id="Rectangle-path" transform="translate(6.243158, 6.467500) rotate(90.000000) translate(-6.243158, -6.467500) " x="5.22631579" y="0.54275" width="2.03368421" height="11.8495"></rect>
                </g>
                <g id="Group" transform="translate(63.000000, 31.000000)" fill="#47E6B1">
                    <rect id="Rectangle-path" x="5.11578947" y="0.12" width="2.03368421" height="11.5136842"></rect>
                    <rect id="Rectangle-path" transform="translate(6.135789, 5.880000) rotate(90.000000) translate(-6.135789, -5.880000) " x="5.11894737" y="0.123157895" width="2.03368421" height="11.5136842"></rect>
                </g>
                <path d="M130.288485,473.57577 C129.129194,473.072254 128.5317,471.779494 128.899374,470.570238 C128.929291,470.480218 128.948368,470.386953 128.956201,470.292416 C128.968815,469.752899 128.637196,469.26499 128.130903,469.07816 C127.62461,468.891331 127.055547,469.046876 126.714681,469.465263 C126.658783,469.541553 126.612152,469.624216 126.57577,469.711515 C126.072254,470.870806 124.779494,471.4683 123.570238,471.100626 C123.480218,471.070709 123.386953,471.051632 123.292416,471.043799 C122.752899,471.031185 122.26499,471.362804 122.07816,471.869097 C121.891331,472.37539 122.046876,472.944453 122.465263,473.285319 C122.541553,473.341217 122.624216,473.387848 122.711515,473.42423 C123.870806,473.927746 124.4683,475.220506 124.100626,476.429762 C124.070709,476.519782 124.051632,476.613047 124.043799,476.707584 C124.031185,477.247101 124.362804,477.73501 124.869097,477.92184 C125.37539,478.108669 125.944453,477.953124 126.285319,477.534737 C126.341217,477.458447 126.387848,477.375784 126.42423,477.288485 C126.927746,476.129194 128.220506,475.5317 129.429762,475.899374 C129.519782,475.929291 129.613047,475.948368 129.707584,475.956201 C130.247101,475.968815 130.73501,475.637196 130.92184,475.130903 C131.108669,474.62461 130.953124,474.055547 130.534737,473.714681 C130.458447,473.658783 130.375784,473.612152 130.288485,473.57577 Z" id="Shape" fill="#4D8AF0"></path>
                <path d="M259.288485,481.57577 C258.129194,481.072254 257.5317,479.779494 257.899374,478.570238 C257.929291,478.480218 257.948368,478.386953 257.956201,478.292416 C257.968815,477.752899 257.637196,477.26499 257.130903,477.07816 C256.62461,476.891331 256.055547,477.046876 255.714681,477.465263 C255.658783,477.541553 255.612152,477.624216 255.57577,477.711515 C255.072254,478.870806 253.779494,479.4683 252.570238,479.100626 C252.480218,479.070709 252.386953,479.051632 252.292416,479.043799 C251.752899,479.031185 251.26499,479.362804 251.07816,479.869097 C250.891331,480.37539 251.046876,480.944453 251.465263,481.285319 C251.541553,481.341217 251.624216,481.387848 251.711515,481.42423 C252.870806,481.927746 253.4683,483.220506 253.100626,484.429762 C253.070709,484.519782 253.051632,484.613047 253.043799,484.707584 C253.031185,485.247101 253.362804,485.73501 253.869097,485.92184 C254.37539,486.108669 254.944453,485.953124 255.285319,485.534737 C255.341217,485.458447 255.387848,485.375784 255.42423,485.288485 C255.927746,484.129194 257.220506,483.5317 258.429762,483.899374 C258.519782,483.929291 258.613047,483.948368 258.707584,483.956201 C259.247101,483.968815 259.73501,483.637196 259.92184,483.130903 C260.108669,482.62461 259.953124,482.055547 259.534737,481.714681 C259.458447,481.658783 259.375784,481.612152 259.288485,481.57577 Z" id="Shape" fill="#4D8AF0"></path>
                <path d="M512.288485,143.57577 C511.129194,143.072254 510.5317,141.779494 510.899374,140.570238 C510.929291,140.480218 510.948368,140.386953 510.956201,140.292416 C510.968815,139.752899 510.637196,139.26499 510.130903,139.07816 C509.62461,138.891331 509.055547,139.046876 508.714681,139.465263 C508.658783,139.541553 508.612152,139.624216 508.57577,139.711515 C508.072254,140.870806 506.779494,141.4683 505.570238,141.100626 C505.480218,141.070709 505.386953,141.051632 505.292416,141.043799 C504.752899,141.031185 504.26499,141.362804 504.07816,141.869097 C503.891331,142.37539 504.046876,142.944453 504.465263,143.285319 C504.541553,143.341217 504.624216,143.387848 504.711515,143.42423 C505.870806,143.927746 506.4683,145.220506 506.100626,146.429762 C506.070709,146.519782 506.051632,146.613047 506.043799,146.707584 C506.031185,147.247101 506.362804,147.73501 506.869097,147.92184 C507.37539,148.108669 507.944453,147.953124 508.285319,147.534737 C508.341217,147.458447 508.387848,147.375784 508.42423,147.288485 C508.927746,146.129194 510.220506,145.5317 511.429762,145.899374 C511.519782,145.929291 511.613047,145.948368 511.707584,145.956201 C512.247101,145.968815 512.73501,145.637196 512.92184,145.130903 C513.108669,144.62461 512.953124,144.055547 512.534737,143.714681 C512.458447,143.658783 512.375784,143.612152 512.288485,143.57577 Z" id="Shape" fill="#4D8AF0"></path>
                <path d="M13.2884852,328.57577 C12.1291945,328.072254 11.5317004,326.779494 11.899374,325.570238 C11.9292911,325.480218 11.9483682,325.386953 11.9562013,325.292416 C11.9688154,324.752899 11.637196,324.26499 11.130903,324.07816 C10.6246099,323.891331 10.055547,324.046876 9.71468083,324.465263 C9.65878285,324.541553 9.61215196,324.624216 9.5757697,324.711515 C9.07225379,325.870806 7.77949382,326.4683 6.57023809,326.100626 C6.48021841,326.070709 6.3869527,326.051632 6.29241584,326.043799 C5.75289872,326.031185 5.26498954,326.362804 5.07816026,326.869097 C4.89133099,327.37539 5.04687575,327.944453 5.46526323,328.285319 C5.54155265,328.341217 5.62421648,328.387848 5.71151477,328.42423 C6.87080551,328.927746 7.46829962,330.220506 7.10062602,331.429762 C7.07070892,331.519782 7.05163184,331.613047 7.04379874,331.707584 C7.03118464,332.247101 7.36280397,332.73501 7.86909703,332.92184 C8.37539009,333.108669 8.94445298,332.953124 9.28531917,332.534737 C9.34121715,332.458447 9.38784804,332.375784 9.4242303,332.288485 C9.92774621,331.129194 11.2205062,330.5317 12.4297619,330.899374 C12.5197816,330.929291 12.6130473,330.948368 12.7075842,330.956201 C13.2471013,330.968815 13.7350105,330.637196 13.9218397,330.130903 C14.108669,329.62461 13.9531242,329.055547 13.5347368,328.714681 C13.4584474,328.658783 13.3757835,328.612152 13.2884852,328.57577 Z" id="Shape" fill="#4D8AF0"></path>
                <circle id="Oval" fill="#ADA2FB" cx="4" cy="155" r="4"></circle>
                <circle id="Oval" fill="#4D8AF0" cx="347" cy="15" r="4"></circle>
                <circle id="Oval" fill="#47E6B1" cx="115" cy="4" r="4"></circle>
                <circle id="Oval" fill="#ADA2FB" cx="427" cy="452" r="4"></circle>
            </g>
            <g id="abduction" transform="translate(137.000000, 0.000000)" fill-rule="nonzero">
                <polygon id="Shape" fill="url(#linearGradient-3)" opacity="0.5" points="250.333 180.907 250.333 512 216.2 512 182.067 146.773"></polygon>
                <polygon id="Shape" fill="url(#linearGradient-4)" opacity="0.5" points="216.2 146.773 216.2 512 79.667 512 79.667 180.907"></polygon>
                <polygon id="Shape" fill="#03FFF4" points="193.444 124.018 216.2 180.907 250.333 180.907 250.333 124.018"></polygon>
                <rect id="Rectangle-path" fill="#57DFD9" x="79.667" y="124.018" width="136.533" height="56.889"></rect>
                <polygon id="Shape" fill="#03FFF4" points="229.444 0 250.333 56.889 165 91.022 207.223 0"></polygon>
                <polygon id="Shape" fill="#57DFD9" points="207.223 0 220.91 56.889 165 91.022 79.667 56.889 100.556 0"></polygon>
                <path d="M250.333,56.889 L220.91,56.889 L165,135.964003 C164.989,135.975 329.921,101.876 329.921,101.876 C329.944,101.865 329.955,101.842 329.978,101.83 C309.134,83.672 280.12,66.731 250.333,56.889 Z" id="Shape" fill="#6550FF"></path>
                <path d="M273.055,101.877 L220.911,146.774 L250.334,146.774 C280.098,136.944 309.077,120.025 329.922,101.877 L273.055,101.877 Z" id="Shape" fill="#7D6AFF"></path>
                <path d="M273.089,101.831 C273.055,101.877 165,136.01 165,136.01 L0.079,101.877 C0.056,101.866 0.045,101.843 0.022,101.831 C20.866,83.672 49.879,66.731 79.666,56.889 L220.91,56.889 C240.423,66.731 259.436,83.672 273.089,101.831 Z" id="Shape" fill="#8472FF"></path>
                <path d="M0.079,101.877 C20.923,120.025 49.902,136.943 79.667,146.774 L220.91,146.774 C240.412,136.944 259.401,120.013 273.054,101.877 L0.079,101.877 Z" id="Shape" fill="#ADA2FB"></path>
                <g id="Group" transform="translate(125.000000, 286.000000)" fill="#FBC566">
                    <path d="M14.4,66.142 L14.4,111.653 C14.4,116.366 18.22,120.186 22.933,120.186 C27.646,120.186 31.466,116.365 31.466,111.653 L31.466,66.142 L14.4,66.142 Z" id="Shape"></path>
                    <path d="M48.533,66.142 L48.533,111.653 C48.533,116.366 52.353,120.186 57.066,120.186 C61.78,120.186 65.599,116.365 65.599,111.653 L65.599,66.142 L48.533,66.142 Z" id="Shape"></path>
                    <path d="M8.711,0.72 C3.997,0.72 0.178,4.541 0.178,9.253 L0.178,34.284 L17.245,34.284 L17.245,9.253 C17.244,4.541 13.425,0.72 8.711,0.72 Z" id="Shape"></path>
                    <path d="M42.844,0.72 C38.13,0.72 34.311,4.541 34.311,9.253 L34.311,43.386 L51.378,43.386 L51.378,9.253 C51.378,4.541 47.558,0.72 42.844,0.72 Z" id="Shape"></path>
                </g>
                <path d="M212.787,352.142 L216.2,406.186 C220.914,406.186 224.733,402.365 224.733,397.653 L224.733,363.52 L212.787,352.142 Z" id="Shape" fill="#F9B233"></path>
                <path d="M207.667,352.142 L207.667,397.653 C207.667,402.366 211.486,406.186 216.2,406.186 L216.2,357.83 L207.667,352.142 Z" id="Shape" fill="#FBC566"></path>
                <path d="M224.733,318.009 C224.733,313.296 220.913,309.476 216.2,309.476 L204.822,336.498 L216.2,363.52 L224.733,363.52 L224.733,318.009 Z" id="Shape" fill="#FEECCC"></path>
                <path d="M113.8,309.476 C109.086,309.476 105.267,313.297 105.267,318.009 C105.267,322.722 109.087,326.542 113.8,326.542 L125.178,326.542 L125.178,346.453 C125.178,355.84 132.858,363.52 142.245,363.52 L216.2,363.52 L216.2,309.476 L113.8,309.476 Z" id="Shape" fill="#FFFFFF"></path>
            </g>
        </g>
    </g>
</svg>